<svg width="150" class="nav-logo" xmlns="http://www.w3.org/2000/svg" xmlns:xlink="http://www.w3.org/1999/xlink" version="1.1" id="Layer_1" x="0px" y="0px" viewBox="0 0 551.4 160" style="enable-background:new 0 0 551.4 160;" xml:space="preserve"><g><g><path class="st0" d="M94.204,75.603l-8.216-7.41v0.001c0.267,0.261,0.514,0.544,0.74,0.84c0.814,1.026,1.368,2.258,1.594,3.547    c0.252,1.389,0.109,2.885-0.384,4.193l-13.423,41.371c1.421-0.576,2.801-1.541,3.78-3.113    c4.353-6.989,12.636-20.401,17.506-28.295C98.029,83.128,97.356,78.441,94.204,75.603"/><path class="st1" d="M88.322,72.582c-0.227-1.29-0.78-2.52-1.594-3.546c-0.248-0.328-0.519-0.635-0.817-0.918l-12.645-11.38    c-2.472-1.086-5.443-0.76-7.734,1.302L53.756,68.687l17.493,15.763c0.63,0.601,0.993,1.483,0.993,2.411v31.788    c0.709-0.053,1.601-0.26,2.273-0.501l13.423-41.372C88.43,75.466,88.574,73.97,88.322,72.582"/><path class="st2" d="M49.648,42.904c1.168-1.049,2.636-1.573,4.107-1.573c1.468,0,2.938,0.525,4.106,1.573l15.404,13.833    c-2.472-1.086-5.443-0.758-7.734,1.302L53.756,68.687L41.98,58.039c-2.291-2.06-5.262-2.388-7.736-1.302L49.648,42.904z"/><path class="st3" d="M36.263,84.451l17.492-15.763l17.493,15.763c0.63,0.6,0.993,1.482,0.993,2.41v31.788    c-2.019,0.148-4.105-0.478-5.755-1.967l-5.206-4.695c-2.139-1.928-4.831-2.895-7.526-2.903c-2.693,0.008-5.387,0.975-7.525,2.903    l-5.206,4.695c-1.652,1.489-3.738,2.115-5.756,1.967V86.86C35.268,85.933,35.631,85.05,36.263,84.451"/><path class="st4" d="M13.307,75.603l8.216-7.41v0.001c-0.267,0.261-0.514,0.544-0.739,0.84c-0.814,1.026-1.37,2.258-1.596,3.547    c-0.252,1.389-0.107,2.885,0.384,4.193l13.423,41.371c-1.42-0.576-2.802-1.541-3.78-3.113    c-4.353-6.989-12.636-20.401-17.506-28.295C9.48,83.128,10.153,78.441,13.307,75.603"/><path class="st5" d="M19.188,72.582c0.292-1.7,1.177-3.269,2.411-4.465l12.645-11.38c2.472-1.086,5.444-0.76,7.734,1.302    l11.776,10.648L36.261,84.449c-0.63,0.601-0.993,1.483-0.993,2.411v31.788c-0.709-0.053-1.601-0.26-2.273-0.501L19.573,76.775    C19.08,75.466,18.935,73.97,19.188,72.582"/></g><g><g><path class="st3" d="M173.259,113.132h-10.253V88.278h-28.005v24.854h-10.293V55.564h10.293v23.817h28.005V55.564h10.253V113.132     z"/><path class="st3" d="M201.984,114.009c-6.543,0-11.675-2.015-15.398-6.044c-3.723-4.029-5.585-9.581-5.585-16.655     c0-7.021,1.874-12.56,5.624-16.616c3.75-4.056,8.87-6.084,15.359-6.084c6.516,0,11.643,2.021,15.379,6.064     c3.736,4.043,5.605,9.588,5.605,16.636c0,7.075-1.869,12.627-5.605,16.655C213.627,111.994,208.5,114.009,201.984,114.009z      M193.965,101.941c1.888,2.513,4.561,3.77,8.019,3.77c3.458,0,6.124-1.257,7.999-3.77c1.874-2.513,2.813-6.057,2.813-10.632     c0-4.548-0.944-8.085-2.833-10.612c-1.888-2.527-4.548-3.79-7.979-3.79c-3.457,0-6.131,1.263-8.019,3.79     s-2.833,6.064-2.833,10.612C191.134,95.885,192.078,99.428,193.965,101.941z"/><path class="st3" d="M229.674,113.132V69.488h9.535v7.061h0.678c0.931-2.5,2.46-4.448,4.588-5.845     c2.127-1.396,4.642-2.095,7.54-2.095c2.952,0,5.465,0.698,7.54,2.095c2.075,1.396,3.577,3.345,4.508,5.845h0.678     c1.091-2.42,2.819-4.349,5.186-5.785c2.368-1.436,5.053-2.154,8.059-2.154c4.362,0,7.786,1.29,10.273,3.87     c2.487,2.58,3.73,6.131,3.73,10.651v30h-9.854V85.644c0-5.612-2.659-8.417-7.979-8.417c-2.553,0-4.615,0.825-6.183,2.473     c-1.569,1.649-2.354,3.737-2.354,6.263v27.168h-9.615V84.927c0-2.393-0.705-4.275-2.115-5.646     c-1.409-1.369-3.338-2.055-5.785-2.055s-4.481,0.892-6.104,2.673c-1.623,1.782-2.433,4.016-2.433,6.702v26.529     C239.569,113.132,229.674,113.132,229.674,113.132z"/><path class="st3" d="M328.893,101.124h9.375c-0.931,3.989-3.119,7.135-6.563,9.435c-3.444,2.301-7.719,3.451-12.826,3.451     c-6.409,0-11.443-2.001-15.1-6.004c-3.657-4.003-5.485-9.515-5.485-16.536s1.835-12.587,5.505-16.695     c3.67-4.109,8.67-6.163,15-6.163c6.223,0,11.097,1.948,14.621,5.845c3.524,3.896,5.286,9.289,5.286,16.178v3.191h-30.479v0.519     c0.134,3.643,1.177,6.523,3.131,8.636c1.955,2.115,4.555,3.171,7.799,3.171C324.159,106.151,327.404,104.475,328.893,101.124z      M318.76,76.469c-2.952,0-5.385,0.971-7.301,2.912c-1.915,1.941-2.979,4.508-3.191,7.699h20.545     c-0.107-3.245-1.064-5.825-2.873-7.739C324.133,77.427,321.74,76.469,318.76,76.469z"/><path class="st3" d="M383.113,104.116v9.016h-36.703V55.564h10.293v48.551H383.113z"/><path class="st3" d="M401.905,113.85c-4.255,0-7.726-1.197-10.412-3.591c-2.686-2.393-4.029-5.559-4.029-9.495     c0-3.936,1.429-7.021,4.289-9.255c2.859-2.234,6.948-3.511,12.267-3.83l11.25-0.678v-3.67c0-2.154-0.705-3.803-2.115-4.947     c-1.409-1.143-3.444-1.715-6.104-1.715c-2.287,0-4.175,0.392-5.665,1.177c-1.489,0.785-2.46,1.908-2.912,3.37h-9.335     c0.4-3.857,2.267-6.921,5.605-9.195s7.6-3.411,12.786-3.411c5.585,0,9.901,1.29,12.945,3.87c3.045,2.58,4.568,6.197,4.568,10.851     v29.801h-9.535v-5.984h-0.678c-1.223,2.101-2.972,3.743-5.246,4.927C407.311,113.258,404.751,113.85,401.905,113.85z      M404.818,106.071c2.979,0,5.465-0.858,7.46-2.573c1.995-1.715,2.992-3.837,2.992-6.363v-3.471l-9.854,0.638     c-5.425,0.346-8.139,2.314-8.139,5.904c0,1.809,0.698,3.238,2.095,4.289C400.769,105.545,402.584,106.071,404.818,106.071z"/><path class="st3" d="M433.664,113.132V69.488h9.535v6.981h0.678c1.064-2.5,2.693-4.435,4.888-5.805s4.888-2.055,8.079-2.055     c4.841,0,8.557,1.409,11.151,4.229c2.593,2.819,3.889,6.835,3.889,12.048v28.245h-9.893V87.241     c0-6.675-2.939-10.013-8.817-10.013c-2.952,0-5.293,0.944-7.021,2.833c-1.729,1.888-2.593,4.441-2.593,7.659v25.413h-9.896     V113.132z"/><path class="st3" d="M508.788,101.124h9.375c-0.931,3.989-3.119,7.135-6.563,9.435c-3.444,2.301-7.719,3.451-12.826,3.451     c-6.409,0-11.443-2.001-15.1-6.004c-3.658-4.003-5.485-9.515-5.485-16.536s1.835-12.587,5.505-16.695     c3.67-4.109,8.67-6.163,15-6.163c6.223,0,11.097,1.948,14.621,5.845c3.524,3.896,5.286,9.289,5.286,16.178v3.191h-30.479v0.519     c0.134,3.643,1.177,6.523,3.131,8.636c1.955,2.115,4.555,3.171,7.799,3.171C504.054,106.151,507.299,104.475,508.788,101.124z      M498.654,76.469c-2.952,0-5.385,0.971-7.301,2.912c-1.915,1.941-2.979,4.508-3.191,7.699h20.545     c-0.107-3.245-1.064-5.825-2.873-7.739C504.027,77.427,501.633,76.469,498.654,76.469z"/></g><g><path class="st3" d="M529.115,69.367c0-0.209,0.073-0.385,0.218-0.531c0.144-0.144,0.322-0.217,0.53-0.217     c0.201,0,0.374,0.073,0.52,0.217c0.145,0.145,0.218,0.323,0.218,0.531c0,0.201-0.073,0.374-0.218,0.52     c-0.145,0.146-0.317,0.218-0.52,0.218c-0.209,0-0.385-0.073-0.53-0.218C529.188,69.741,529.115,69.569,529.115,69.367z"/><path class="st3" d="M537.313,81.788v-0.86c0.851-0.179,1.546-0.612,2.09-1.296c0.542-0.685,0.815-1.515,0.815-2.491     c0-1.304-0.47-2.338-1.408-3.106c-0.938-0.767-2.205-1.15-3.798-1.15c-1.6,0-2.869,0.383-3.803,1.15     c-0.936,0.767-1.403,1.803-1.403,3.106c0,0.976,0.258,1.804,0.771,2.485c0.514,0.682,1.191,1.112,2.034,1.291v0.86     c-1.066-0.172-1.93-0.682-2.591-1.531c-0.664-0.849-0.995-1.884-0.995-3.105c0-1.571,0.537-2.82,1.608-3.743     c1.072-0.923,2.532-1.385,4.379-1.385c1.832,0,3.287,0.464,4.367,1.392c1.08,0.927,1.62,2.167,1.62,3.725     c0,1.228-0.348,2.267-1.044,3.116C539.259,81.095,538.379,81.61,537.313,81.788z"/><path class="st3" d="M530.645,93.379c-1.08-0.95-1.62-2.202-1.62-3.759c0-1.556,0.54-2.807,1.62-3.754     c1.079-0.944,2.535-1.419,4.367-1.419c1.832,0,3.287,0.473,4.367,1.419c1.08,0.945,1.62,2.197,1.62,3.754s-0.54,2.809-1.62,3.759     s-2.535,1.423-4.367,1.423C533.18,94.802,531.724,94.328,530.645,93.379z M531.21,86.491c-0.936,0.783-1.403,1.825-1.403,3.128     c0,1.304,0.47,2.348,1.408,3.134c0.938,0.785,2.205,1.179,3.798,1.179c1.6,0,2.869-0.394,3.803-1.179     c0.935-0.786,1.403-1.831,1.403-3.134c0-1.302-0.469-2.345-1.403-3.128c-0.935-0.781-2.202-1.172-3.803-1.172     C533.412,85.32,532.144,85.71,531.21,86.491z"/><path class="st3" d="M529.204,97.848h11.617v0.815h-2.525v0.022c0.804,0.231,1.456,0.653,1.955,1.263     c0.498,0.61,0.749,1.36,0.749,2.246s-0.26,1.645-0.781,2.274c-0.523,0.628-1.181,1.033-1.977,1.211v0.033     c0.781,0.209,1.436,0.646,1.966,1.312c0.528,0.667,0.793,1.457,0.793,2.375c0,1.123-0.36,2.024-1.078,2.703     c-0.718,0.678-1.678,1.017-2.877,1.017h-7.841v-0.872h7.641c1.043,0,1.865-0.272,2.468-0.815     c0.602-0.544,0.906-1.289,0.906-2.234c0-0.976-0.353-1.767-1.056-2.373c-0.705-0.608-1.614-0.91-2.732-0.91h-7.227v-0.86h7.673     c0.998,0,1.804-0.284,2.419-0.849c0.614-0.566,0.922-1.296,0.922-2.19c0-0.976-0.373-1.769-1.119-2.379     c-0.744-0.61-1.732-0.915-2.959-0.915h-6.937L529.204,97.848L529.204,97.848z"/></g></g></g></svg>